<?xml version="1.0" encoding="UTF-8" standalone="no"?>
<svg
   width="24"
   height="24"
   viewBox="0 0 24 24"
   fill="none"
   stroke="currentColor"
   stroke-width="2"
   stroke-linecap="round"
   stroke-linejoin="round"
   class="lucide lucide-calculator"
   version="1.1"
   id="svg8"
   sodipodi:docname="calculator.svg"
   inkscape:version="1.3.2 (091e20e, 2023-11-25, custom)"
   xmlns:inkscape="http://www.inkscape.org/namespaces/inkscape"
   xmlns:sodipodi="http://sodipodi.sourceforge.net/DTD/sodipodi-0.dtd"
   xmlns="http://www.w3.org/2000/svg"
   xmlns:svg="http://www.w3.org/2000/svg">
  <defs
     id="defs8" />
  <sodipodi:namedview
     id="namedview8"
     pagecolor="#ffffff"
     bordercolor="#000000"
     borderopacity="0.25"
     inkscape:showpageshadow="2"
     inkscape:pageopacity="0.0"
     inkscape:pagecheckerboard="0"
     inkscape:deskcolor="#d1d1d1"
     inkscape:zoom="32.375"
     inkscape:cx="11.984556"
     inkscape:cy="12"
     inkscape:window-width="1920"
     inkscape:window-height="991"
     inkscape:window-x="-9"
     inkscape:window-y="-9"
     inkscape:window-maximized="1"
     inkscape:current-layer="svg8" />
  <rect
     width="16"
     height="20"
     x="4"
     y="2"
     rx="2"
     id="rect1" />
  <line
     x1="8"
     x2="16"
     y1="6"
     y2="6"
     id="line1" />
  <line
     x1="16"
     x2="16"
     y1="14"
     y2="18"
     id="line2" />
  <path
     d="M16 10h.01"
     id="path2" />
  <path
     d="M12 10h.01"
     id="path3" />
  <path
     d="M8 10h.01"
     id="path4" />
  <path
     d="M12 14h.01"
     id="path5" />
  <path
     d="M8 14h.01"
     id="path6" />
  <path
     d="M12 18h.01"
     id="path7" />
  <path
     d="M8 18h.01"
     id="path8" />
  <path
     style="opacity:0.15;fill:#ffffff;stroke:#1a1a1a;stroke-width:0.0617761"
     d="M 5.7085494,20.931208 C 5.4810709,20.85238 5.3169993,20.734747 5.2025843,20.568451 5.0059491,20.282651 5.019305,20.907001 5.019305,12.000697 5.019305,2.9642239 5.0015112,3.6960633 5.2284777,3.3976834 5.3136263,3.2857433 5.4042778,3.2134932 5.557894,3.1351351 L 5.7698333,3.027027 H 12 18.230167 l 0.211939,0.1081081 c 0.153616,0.078358 0.244268,0.1506082 0.329416,0.2625483 C 18.998488,3.6960627 18.980695,2.9642998 18.980695,12 c 0,9.0357 0.01779,8.303937 -0.209173,8.602317 -0.08515,0.111937 -0.175802,0.184192 -0.329411,0.262548 l -0.211934,0.108108 -6.180726,0.0069 c -5.8781044,0.0065 -6.1885677,0.0042 -6.3409016,-0.04863 z m 2.7498688,-2.023982 c 0.217247,-0.106289 0.4307837,-0.340541 0.5040362,-0.552933 0.082523,-0.23927 0.071078,-0.5542 -0.028004,-0.770624 -0.2893581,-0.632042 -1.105511,-0.798103 -1.6148858,-0.328577 -0.2060731,0.189951 -0.2994358,0.39016 -0.3167863,0.679321 -0.029251,0.487501 0.2358859,0.888104 0.6851387,1.035193 0.2052222,0.06719 0.5652436,0.03804 0.7705012,-0.06238 z m 3.9894578,0.0095 c 0.195296,-0.09297 0.383747,-0.280257 0.478089,-0.475141 0.107096,-0.221232 0.12118,-0.561402 0.03293,-0.795269 -0.251455,-0.666342 -1.105764,-0.872419 -1.646925,-0.397273 -0.06258,0.05495 -0.159245,0.192288 -0.214806,0.3052 -0.08932,0.181523 -0.100846,0.233971 -0.09951,0.452955 0.0018,0.297016 0.06788,0.466975 0.264401,0.68017 0.220099,0.238779 0.450558,0.329071 0.799721,0.313325 0.16344,-0.0074 0.27714,-0.0321 0.3861,-0.08397 z m 3.976358,0.0094 c 0.211295,-0.09401 0.433278,-0.328777 0.513426,-0.542989 0.06541,-0.174816 0.0662,-0.20341 0.0662,-2.383116 0,-2.179706 -7.94e-4,-2.2083 -0.0662,-2.383116 -0.07961,-0.212778 -0.300173,-0.447041 -0.513426,-0.545317 -0.218645,-0.10076 -0.64323,-0.0967 -0.856666,0.0082 -0.223264,0.109722 -0.425931,0.325184 -0.505228,0.537124 -0.06541,0.174819 -0.0662,0.203392 -0.0662,2.383943 0,2.104102 0.0028,2.214306 0.0595,2.363601 0.108322,0.285081 0.344216,0.510865 0.632276,0.605178 0.181356,0.05938 0.554662,0.03732 0.736317,-0.0435 z M 8.2069739,14.992333 C 8.5416732,14.921392 8.7950851,14.720745 8.93445,14.416331 9.0335324,14.199907 9.044977,13.884977 8.9624544,13.645707 8.8886561,13.431733 8.6758462,13.199234 8.4541347,13.090359 8.3008287,13.015075 8.2419512,13.003861 8,13.003861 c -0.2327421,0 -0.3031313,0.01235 -0.4324324,0.0759 -0.2257359,0.110937 -0.4257063,0.324862 -0.5082215,0.543687 -0.094877,0.251608 -0.079164,0.606832 0.036864,0.833392 0.1417732,0.27683 0.4084535,0.477462 0.7155803,0.538353 0.1814257,0.03597 0.2130763,0.03574 0.3951836,-0.0029 z m 4.2347401,-0.08085 c 0.224126,-0.0996 0.426741,-0.318111 0.517177,-0.557762 0.136001,-0.360394 0.04124,-0.799322 -0.231404,-1.071796 -0.207553,-0.207427 -0.385926,-0.276811 -0.712043,-0.276969 -0.346885,-1.68e-4 -0.53505,0.07503 -0.742378,0.296679 -0.205912,0.220136 -0.273568,0.389796 -0.275412,0.690646 -0.0017,0.278045 0.07826,0.497539 0.254308,0.698046 0.278394,0.317074 0.768774,0.408228 1.189752,0.221156 z M 8.4584182,10.907226 C 8.6756652,10.800937 8.8892019,10.566685 8.9624544,10.354293 9.044977,10.115023 9.0335324,9.8000927 8.93445,9.5836686 8.6450919,8.9516272 7.828939,8.7855663 7.3195642,9.2550919 7.1134911,9.4450434 7.0201284,9.6452519 7.0027779,9.9344133 c -0.029251,0.4875007 0.2358859,0.8881037 0.6851387,1.0351927 0.2052222,0.06719 0.5652436,0.03804 0.7705016,-0.06238 z m 3.9894578,0.0095 c 0.195296,-0.09297 0.383747,-0.280257 0.478089,-0.475141 0.107096,-0.221232 0.12118,-0.5614015 0.03293,-0.7952693 C 12.70744,8.9799744 11.853131,8.7738975 11.31197,9.2490431 c -0.06258,0.054948 -0.159245,0.1922879 -0.214806,0.3051997 -0.08932,0.1815228 -0.100846,0.2339713 -0.09951,0.4529552 0.0018,0.297016 0.06788,0.466975 0.264401,0.68017 0.220099,0.238779 0.450558,0.329071 0.799721,0.313325 0.16344,-0.0074 0.27714,-0.0321 0.3861,-0.08397 z m 4.010542,-0.0095 c 0.217247,-0.106289 0.430784,-0.340541 0.504036,-0.552933 0.08252,-0.23927 0.07108,-0.5542003 -0.028,-0.7706244 -0.289358,-0.6320414 -1.105511,-0.7981023 -1.614886,-0.3285767 -0.206073,0.1899515 -0.299436,0.39016 -0.316786,0.6793214 -0.02925,0.4875007 0.235886,0.8881037 0.685139,1.0351927 0.205222,0.06719 0.565243,0.03804 0.770501,-0.06238 z m -0.09566,-3.9525397 c 0.19357,-0.075157 0.439153,-0.2998026 0.541971,-0.4957643 0.07287,-0.1388812 0.08283,-0.1931259 0.08323,-0.4532133 4.14e-4,-0.2679245 -0.0082,-0.3123608 -0.09229,-0.4769715 C 16.780057,5.3024609 16.543811,5.1017163 16.314772,5.0351328 16.170281,4.9931281 15.656864,4.9885045 11.936547,4.9957045 L 7.7220077,5.003861 7.5675676,5.0797601 C 7.3418317,5.1906973 7.1418613,5.4046225 7.0593461,5.6234474 6.9644692,5.8750548 6.980182,6.2302789 7.09621,6.4568386 7.2378757,6.7334592 7.5038255,6.9336633 7.8117903,6.99552 c 0.069539,0.013967 1.9889819,0.023295 4.2654297,0.020729 3.940778,-0.00444 4.146014,-0.00739 4.285535,-0.061563 z"
     id="path9" />
  <path
     style="opacity:0.15;fill:#000080;stroke:#1a1a1a;stroke-width:0.0617761"
     d="M 5.7915058,20.897623 C 5.7320463,20.88557 5.6262346,20.846161 5.5563686,20.810048 5.402639,20.730587 5.1583799,20.466558 5.1292281,20.348334 5.0869901,20.177041 5.0552456,16.57585 5.0550929,11.938224 5.0549225,6.7605535 5.0848655,3.8021538 5.1391742,3.6309113 5.1857742,3.4839752 5.4014826,3.2711428 5.6130188,3.1633845 L 5.7897442,3.0733591 H 12 18.210256 l 0.176725,0.090025 c 0.211484,0.1077317 0.427205,0.3205466 0.473912,0.4675268 0.05397,0.1698506 0.08401,3.1621463 0.08401,8.3690891 0,5.206942 -0.03004,8.199238 -0.08401,8.369089 -0.04671,0.14698 -0.262428,0.359795 -0.473912,0.467527 l -0.176725,0.09003 -6.155321,-0.0036 c -3.3854267,-0.002 -6.2039697,-0.01341 -6.2634292,-0.02547 z m 2.6640083,-1.941181 c 0.1848232,-0.08176 0.4206573,-0.31653 0.5186178,-0.516288 0.063284,-0.129045 0.075764,-0.200149 0.075899,-0.432432 C 9.050172,17.766032 9.0389745,17.706885 8.9642839,17.55479 8.8549998,17.332252 8.6754703,17.152722 8.4529316,17.043438 8.303272,16.969943 8.2400525,16.957529 8.015444,16.957529 c -0.219134,0 -0.2912527,0.01346 -0.4361393,0.0814 -0.2258192,0.105884 -0.3955473,0.261785 -0.5060587,0.464831 -0.1752821,0.322051 -0.1353457,0.850617 0.086349,1.142841 0.1105119,0.145671 0.3439345,0.316906 0.496458,0.364194 0.1640317,0.05086 0.6338298,0.01892 0.7994613,-0.05435 z m 4.0098399,-6.7e-5 c 0.180514,-0.08748 0.411236,-0.318134 0.498452,-0.4983 0.101885,-0.210466 0.114204,-0.608507 0.02607,-0.842268 -0.08788,-0.233077 -0.303447,-0.460139 -0.541998,-0.570895 -0.156846,-0.07282 -0.226156,-0.08615 -0.45099,-0.08671 -0.243328,-6.13e-4 -0.283481,0.0084 -0.477602,0.107439 -0.376097,0.191843 -0.586646,0.561952 -0.562294,0.988417 0.02556,0.447645 0.278691,0.79048 0.699606,0.947537 0.175182,0.06537 0.633447,0.03975 0.808758,-0.04522 z m 3.989305,0.0014 c 0.178738,-0.08025 0.395701,-0.29812 0.492392,-0.494463 l 0.07225,-0.146719 V 16 13.683398 l -0.07225,-0.146719 c -0.09603,-0.194999 -0.312577,-0.413291 -0.492392,-0.496361 -0.21679,-0.10015 -0.702557,-0.09737 -0.910872,0.0052 -0.188625,0.09288 -0.41613,0.32039 -0.498643,0.498643 -0.06353,0.137244 -0.06445,0.17228 -0.06445,2.455833 v 2.316602 l 0.07576,0.15444 c 0.101917,0.207771 0.334267,0.428609 0.534026,0.507569 0.218633,0.08642 0.64837,0.07606 0.864181,-0.02083 z M 8.2955521,15.009395 C 8.7971438,14.864329 9.1086314,14.396646 9.0536982,13.871077 9.0289112,13.633928 8.9345588,13.441607 8.75464,13.261501 8.5102338,13.01684 8.3955012,12.972973 8,12.972973 c -0.3184366,0 -0.3492328,0.0056 -0.490517,0.08861 -0.2189035,0.128666 -0.4096286,0.341802 -0.4851368,0.542143 -0.087655,0.232568 -0.073604,0.662886 0.028041,0.85874 0.2412563,0.464863 0.7511996,0.689214 1.243165,0.546933 z m 4.1668429,-0.06221 c 0.22323,-0.102127 0.441588,-0.335187 0.527479,-0.562994 0.09455,-0.250773 0.07538,-0.632563 -0.04337,-0.864012 -0.106239,-0.207054 -0.29439,-0.395852 -0.478574,-0.480222 -0.213053,-0.0976 -0.696604,-0.09405 -0.922407,0.0068 -0.191075,0.0853 -0.41805,0.316292 -0.5128,0.521864 -0.102298,0.221946 -0.09628,0.640519 0.01253,0.871574 0.144114,0.306015 0.355748,0.487172 0.674569,0.577426 0.201936,0.05716 0.532184,0.02586 0.74257,-0.07039 z M 8.4555141,10.956442 c 0.1848232,-0.08176 0.4206573,-0.31653 0.5186178,-0.516288 0.063284,-0.129045 0.075764,-0.200149 0.075899,-0.432432 C 9.050172,9.7660315 9.0389745,9.7068853 8.9642839,9.5547904 8.8549998,9.3322517 8.6754703,9.1527222 8.4529316,9.0434381 8.303272,8.9699432 8.2400525,8.957529 8.015444,8.957529 7.79631,8.957529 7.7241913,8.970988 7.5793047,9.038924 7.3534855,9.1448081 7.1837574,9.3007087 7.073246,9.5037545 6.8979639,9.8258055 6.9379003,10.354372 7.159595,10.646596 c 0.1105119,0.145671 0.3439345,0.316906 0.496458,0.364194 0.1640317,0.05086 0.6338298,0.01892 0.7994613,-0.05435 z m 4.0098399,-6.7e-5 c 0.180514,-0.08748 0.411236,-0.318134 0.498452,-0.4983 0.101885,-0.210466 0.114204,-0.6085074 0.02607,-0.8422684 -0.08788,-0.2330767 -0.303447,-0.4601383 -0.541998,-0.5708945 -0.156846,-0.072822 -0.226156,-0.086149 -0.45099,-0.086714 -0.243328,-6.125e-4 -0.283481,0.00842 -0.477602,0.1074394 -0.376097,0.1918434 -0.586646,0.5619521 -0.562294,0.9884165 0.02556,0.447645 0.278691,0.79048 0.699606,0.947537 0.175182,0.06537 0.633447,0.03975 0.808758,-0.04522 z m 3.99016,6.7e-5 c 0.184823,-0.08176 0.420657,-0.31653 0.518618,-0.516288 0.06328,-0.129045 0.07576,-0.200149 0.0759,-0.432432 1.41e-4,-0.2416905 -0.01106,-0.3008367 -0.08575,-0.4529316 C 16.855,9.3322517 16.67547,9.1527222 16.452932,9.0434381 16.303272,8.9699432 16.240053,8.957529 16.015444,8.957529 c -0.219134,0 -0.291253,0.013459 -0.436139,0.081395 -0.22582,0.1058841 -0.395547,0.2617847 -0.506059,0.4648305 -0.175282,0.322051 -0.135346,0.8506175 0.08635,1.1428415 0.110512,0.145671 0.343934,0.316906 0.496458,0.364194 0.164032,0.05086 0.63383,0.01892 0.799461,-0.05435 z m -0.03853,-3.9791954 c 0.19687,-0.092381 0.403791,-0.286778 0.510694,-0.4797822 0.08599,-0.155255 0.09162,-0.1862931 0.09162,-0.5051864 0,-0.3189831 -0.0055,-0.3492162 -0.0897,-0.4942085 -0.115369,-0.1986359 -0.28196,-0.358332 -0.47075,-0.4512699 L 16.30888,4.972973 12.00515,4.9647232 7.7014192,4.9564734 7.5438846,5.0419433 C 7.3143635,5.1664692 7.1033194,5.3941535 7.0251467,5.6015822 c -0.054015,0.1433273 -0.06362,0.2241135 -0.053795,0.4524719 0.010106,0.2348976 0.025826,0.3033871 0.1014032,0.4418084 0.1470405,0.2693075 0.4165901,0.4717987 0.7062025,0.5305134 0.070608,0.014315 2.0117762,0.023792 4.3137066,0.021061 l 4.185328,-0.00497 z"
     id="path10" />
  <path
     style="opacity:0.15;fill:#000080;stroke:#1a1a1a;stroke-width:0.0617761"
     d="M 5.6640542,22.964474 C 5.224417,22.912349 4.7199894,22.727045 4.3495799,22.481596 4.1156527,22.326586 3.7878187,22.015932 3.6085616,21.779412 3.4152781,21.524385 3.1837792,21.032846 3.0977291,20.694767 L 3.027027,20.416988 V 12 3.5830116 L 3.0977291,3.3052331 C 3.1366152,3.1524549 3.2352858,2.8883623 3.3169972,2.7183605 3.7079263,1.9050261 4.3800949,1.3529575 5.2821161,1.1043601 L 5.5907336,1.019305 h 6.3629344 c 6.855513,0 6.517062,-0.00767 7.008091,0.1587586 0.573415,0.1943488 1.155849,0.6360626 1.5019,1.1390313 0.158329,0.230123 0.363167,0.6919534 0.439002,0.9897794 l 0.07031,0.2761373 V 12 20.416988 l -0.0707,0.277779 c -0.03889,0.152778 -0.137557,0.416871 -0.219268,0.586873 -0.392303,0.816192 -1.062338,1.364276 -1.976628,1.616866 l -0.297109,0.08208 -6.27027,0.0041 c -3.4486485,0.0022 -6.3623724,-0.0068 -6.4749418,-0.02019 z M 18.402223,20.930056 c 0.288168,-0.133694 0.46976,-0.330639 0.559372,-0.606664 0.04623,-0.142402 0.04978,-0.842421 0.04249,-8.3861 L 18.996139,3.7065637 18.92562,3.5649099 C 18.823746,3.3602725 18.623038,3.1700499 18.402223,3.0688549 L 18.209851,2.980695 H 12 5.7901494 l -0.192372,0.08736 C 5.4657603,3.1280074 5.3561767,3.2093571 5.2484965,3.327345 4.9604293,3.6429876 4.9866833,2.7354913 4.9958076,12.061776 l 0.00805,8.23166 0.072728,0.138996 c 0.1440895,0.27538 0.4058319,0.489655 0.6758267,0.553265 0.065405,0.01541 2.8169341,0.02876 6.2868717,0.03051 l 6.170563,0.0031 z"
     id="path11" />
  <path
     style="opacity:0.15;fill:#000080;stroke:#1a1a1a;stroke-width:0.0617761"
     d="M 5.4517375,22.887946 C 4.9024893,22.776845 4.3934478,22.513019 3.9882142,22.129432 3.5808362,21.743814 3.3185008,21.302343 3.1488457,20.716898 L 3.0733591,20.45641 V 12 3.5435902 L 3.15179,3.2729414 C 3.3135045,2.7148987 3.5924345,2.2449567 3.9802133,1.8772116 4.3586851,1.5182927 4.7462844,1.3002341 5.2805179,1.1456761 l 0.276657,-0.080039 6.1326091,6.609e-4 c 3.428611,3.695e-4 6.323279,0.013291 6.565042,0.029306 0.458009,0.030339 0.691946,0.089865 1.034749,0.2632945 0.405627,0.205213 0.852408,0.5831036 1.100569,0.93087 0.175917,0.2465248 0.357263,0.635324 0.457224,0.980266 l 0.07927,0.2735558 V 12 20.45641 l -0.07843,0.270649 c -0.161715,0.558042 -0.440645,1.027984 -0.828423,1.395729 -0.377353,0.357858 -0.746554,0.563588 -1.318779,0.734862 l -0.256296,0.07671 -6.396101,-0.0029 C 6.8950102,22.92916 5.6135058,22.92067 5.4517355,22.88795 Z M 18.426505,20.956623 c 0.251286,-0.126848 0.412047,-0.279389 0.51466,-0.488344 l 0.08586,-0.174843 0.0083,-8.28565 0.0083,-8.2856506 -0.07966,-0.1572068 C 18.857543,3.355015 18.656195,3.159324 18.428131,3.0441975 L 18.241144,2.9498069 H 12 5.7588561 L 5.5821307,3.0392181 C 5.3559952,3.1536276 5.115863,3.3653755 5.0596314,3.4999567 5.0354964,3.55772 5.0031405,3.7876825 4.9877294,4.0109846 4.9721341,4.2369551 4.9592258,7.9340491 4.9586191,12.348517 l -0.00109,7.931529 0.07911,0.156116 c 0.095759,0.188972 0.2997324,0.399016 0.4816555,0.49599 0.1021917,0.05447 0.2042285,0.07578 0.4276514,0.08929 0.16139,0.0098 2.9938326,0.02022 6.294317,0.02325 l 6.000881,0.0055 z"
     id="path12" />
  <path
     style="opacity:0.15;fill:#000080;stroke:#1a1a1a;stroke-width:0.0617761"
     d="M 6.996139,22.872814 C 5.456781,22.856068 5.3987828,22.853286 5.2003499,22.786649 4.7046109,22.620173 4.3544258,22.415002 4.0075991,22.087823 3.6513051,21.751713 3.4144653,21.372934 3.2236052,20.833977 L 3.1196911,20.540541 3.1117487,12.064532 3.1038063,3.588523 3.1685747,3.3577022 C 3.4664448,2.2961567 4.1204771,1.5924238 5.1508044,1.2248409 l 0.3163771,-0.1128718 4.3706563,-0.00788 c 2.4038612,-0.00433 5.3505792,0.00421 6.5482622,0.018996 2.057044,0.025388 2.190678,0.030411 2.4137,0.090718 0.42649,0.1153261 0.832118,0.3564025 1.220642,0.7254628 0.378936,0.3599522 0.623719,0.785161 0.8031,1.395056 l 0.07221,0.2455178 v 8.4166043 8.416605 l -0.06455,0.230035 c -0.151102,0.538495 -0.395534,0.980117 -0.751104,1.35704 -0.358474,0.380002 -0.751543,0.613587 -1.361089,0.808842 l -0.29504,0.09451 -4.91855,-0.0067 c -2.705202,-0.0037 -5.6343795,-0.01446 -6.509283,-0.02398 z m 11.471935,-1.897619 c 0.230912,-0.12985 0.418525,-0.320715 0.524914,-0.534014 l 0.08037,-0.161135 -2.9e-4,-8.302185 -2.9e-4,-8.3021853 -0.08949,-0.1544402 C 18.870686,3.3269124 18.707865,3.1698823 18.47286,3.0289613 L 18.289349,2.9189189 H 11.999694 5.71004 L 5.518781,3.034749 C 5.2739388,3.1830301 5.0875454,3.3592239 5.0301147,3.4966748 5.0052255,3.5562431 4.9722524,3.7876825 4.9568413,4.0109846 4.9412437,4.2369884 4.9283378,7.9403314 4.927731,12.364165 l -0.00109,7.947176 0.064642,0.126709 c 0.086947,0.170431 0.3188052,0.413605 0.490036,0.513953 0.1231738,0.07218 0.1839603,0.08413 0.5107152,0.100346 0.2039952,0.01013 3.0521901,0.02073 6.3293218,0.02357 l 5.958422,0.0052 z"
     id="path13" />
  <path
     style="opacity:0.15;fill:#000080;stroke:#1a1a1a;stroke-width:0.0617761"
     d="M 9.4054054,22.840153 C 5.8776681,22.821979 5.4484623,22.81455 5.2875887,22.76888 4.380422,22.51135 3.6794201,21.871166 3.3165075,20.968807 L 3.1815342,20.633205 3.154765,12.125023 3.1279957,3.6168413 3.2583021,3.2218516 C 3.5638325,2.2957156 4.1278578,1.6886564 5.0283946,1.3167052 l 0.3461228,-0.14296 5.6525096,-0.00836 c 3.10888,-0.0046 6.104247,0.00458 6.656371,0.020398 0.905679,0.025944 1.023432,0.035367 1.203966,0.096355 0.385668,0.1302857 0.725456,0.3366085 1.051543,0.6385074 0.384527,0.3560045 0.605999,0.7134091 0.80043,1.2917081 l 0.124618,0.3706564 4.55e-4,8.4088979 4.55e-4,8.408896 -0.09566,0.301527 c -0.339469,1.070012 -0.941356,1.679773 -2.033233,2.05983 l -0.317238,0.110424 -2.537551,-0.0061 c -1.395654,-0.0033 -4.309752,-0.0152 -6.4757756,-0.02636 z m 9.0812026,-1.836366 c 0.223613,-0.135838 0.413224,-0.324101 0.528068,-0.524317 l 0.08899,-0.155146 2.9e-4,-8.34397 2.9e-4,-8.3439708 L 18.978949,3.448748 C 18.849687,3.2551762 18.736228,3.1511473 18.472717,2.9845895 L 18.319952,2.8880309 H 11.998742 5.6775312 L 5.4943949,3.0063976 C 5.0304234,3.3062768 4.9668332,3.4183656 4.9261492,4.0080304 4.9102951,4.2378162 4.8974555,7.9091395 4.896843,12.387775 l -0.00109,7.970787 0.092796,0.146323 c 0.1190667,0.187749 0.3447864,0.406875 0.5064063,0.491614 0.102812,0.05391 0.2022886,0.07004 0.5282112,0.08565 0.2208494,0.01058 3.075402,0.02162 6.3434495,0.02453 l 5.941905,0.0053 z"
     id="path14" />
  <path
     style="opacity:0.15;fill:#000080;stroke:#1a1a1a;stroke-width:0.0617761"
     d="M 10.733591,22.807251 C 8.0409266,22.794002 5.7057915,22.770592 5.5444015,22.755229 5.2045639,22.722879 4.881764,22.606838 4.5405405,22.39436 4.0026873,22.05944 3.6113762,21.578772 3.3370338,20.916029 l -0.1130746,-0.27316 -0.03044,-8.51499 -0.030439,-8.5149895 0.111895,-0.321466 C 3.6332659,2.2620805 4.1364526,1.7290121 5.1432478,1.3122036 l 0.2312696,-0.095744 6.2084946,-0.00102 c 6.442123,-0.00105 7.010139,0.00843 7.337393,0.1225739 0.719527,0.250957 1.38985,0.8872139 1.668624,1.5838225 0.03675,0.09183 0.106897,0.2842434 0.155883,0.4275847 l 0.08907,0.2606204 v 8.3927609 8.392761 l -0.110424,0.317238 c -0.380049,1.091855 -0.932188,1.636275 -2.061921,2.033097 l -0.272732,0.0958 -1.379778,-0.0052 c -0.758878,-0.0028 -3.582867,-0.01602 -6.275531,-0.02927 z m 7.815556,-1.803978 c 0.224388,-0.149173 0.357546,-0.284496 0.498228,-0.506328 l 0.08776,-0.138383 V 11.985679 3.612796 L 19.053779,3.4897957 C 18.928874,3.3009541 18.737252,3.1139645 18.530665,2.979328 L 18.343183,2.8571429 H 11.995031 5.6468782 L 5.3871457,3.0371153 C 5.1004026,3.2358037 4.9824354,3.389747 4.9214846,3.6447876 4.893483,3.7619565 4.8819623,5.7996797 4.8737466,12.088443 l -0.010829,8.289214 0.096615,0.150561 c 0.1169525,0.182255 0.4058012,0.452095 0.5539812,0.517524 0.072299,0.03192 0.256461,0.0541 0.5559846,0.06695 0.246332,0.01057 3.1077831,0.02168 6.3587806,0.02469 l 5.910903,0.0055 z"
     id="path15" />
  <path
     style="opacity:0.15;fill:#000080;stroke:#1a1a1a;stroke-width:0.0617761"
     d="M 11.783784,22.775695 C 9.1420849,22.761974 6.6054054,22.73823 6.1467181,22.722933 5.3217952,22.695421 5.3099312,22.694078 5.0538912,22.599214 4.295545,22.318243 3.7387304,21.753207 3.3752181,20.895753 L 3.2639124,20.633205 3.2317592,12.129918 3.199606,3.626631 3.2940563,3.3577171 C 3.6596564,2.3168002 4.1038537,1.8242807 5.0699815,1.3885973 l 0.3045359,-0.137333 5.6370656,9.325e-4 c 5.910964,9.777e-4 7.513432,0.022515 7.822913,0.1051387 0.51744,0.1381443 1.114432,0.5968124 1.472143,1.1310456 0.117662,0.1757244 0.22805,0.3985219 0.329036,0.6640926 l 0.15197,0.3996499 0.0079,8.4063334 0.0079,8.406334 -0.09596,0.273203 c -0.401931,1.144266 -0.932331,1.672637 -2.088817,2.080826 l -0.260629,0.09199 -0.88557,-0.0051 C 16.985406,22.80291 14.42551,22.7894 11.783811,22.77568 Z m 6.776,-1.738117 c 0.213627,-0.153706 0.40473,-0.345716 0.524883,-0.527374 l 0.08136,-0.123 V 11.979432 3.5716592 L 19.019305,3.3895986 C 18.85783,3.1892268 18.73065,3.0726099 18.511809,2.9242549 l -0.144561,-0.098 H 11.992893 5.6185379 L 5.4193076,2.9692924 C 5.1353463,3.1731627 5.0552505,3.2537117 4.9626128,3.4285714 l -0.08182,0.1544402 -0.019907,1.3590733 c -0.010949,0.7474904 -0.021483,4.5326308 -0.023408,8.4114231 l -0.0035,7.05235 0.091388,0.132828 c 0.1286111,0.18693 0.3957919,0.44323 0.5418162,0.519751 0.1048744,0.05496 0.2005974,0.06778 0.6332046,0.08482 0.2803089,0.01104 3.1557637,0.02242 6.3899004,0.02528 l 5.880246,0.0052 z"
     id="path16" />
  <path
     style="opacity:0.15;fill:#000080;stroke:#1a1a1a;stroke-width:0.0617761"
     d="M 15.366795,22.758343 C 11.843,22.744635 5.9184317,22.683516 5.5866181,22.657449 5.1727231,22.624934 4.887584,22.522674 4.5101521,22.271394 4.0668735,21.976275 3.7537044,21.593592 3.4635168,20.992437 l -0.1584975,-0.328344 -0.00768,-1.992278 c -0.00422,-1.095753 -0.019606,-4.925097 -0.034183,-8.509653 L 3.2366535,3.6447876 3.3280241,3.3822394 C 3.6805577,2.3692542 4.1198299,1.8776437 5.0698111,1.4329223 l 0.3227025,-0.151069 4.3925462,0.0015 c 4.7170312,0.00162 8.5179702,0.039869 8.8773872,0.089342 0.375074,0.051628 0.798922,0.2792493 1.174936,0.6309802 0.355226,0.3322866 0.577886,0.6832284 0.794594,1.252391 l 0.100961,0.2651643 0.02218,8.4015442 0.02217,8.401544 -0.09453,0.26589 c -0.409158,1.15081 -0.923661,1.67203 -2.054589,2.081409 l -0.299184,0.1083 -0.62395,-0.0075 c -0.343172,-0.0041 -1.395378,-0.01046 -2.338236,-0.01412 z m 3.280387,-1.747584 c 0.130854,-0.105725 0.308074,-0.280019 0.393822,-0.387322 l 0.155907,-0.195096 V 11.98852 3.5486993 L 19.026834,3.3425068 C 18.933291,3.229101 18.754834,3.0596011 18.630262,2.9658406 L 18.403767,2.7953668 H 12.001173 5.5985786 L 5.4015121,2.9359905 C 5.1440795,3.1196906 5.0006696,3.2695936 4.9007177,3.4594595 L 4.819415,3.6138996 4.808554,12.022006 4.797693,20.430112 4.9392586,20.614088 c 0.1614625,0.209832 0.385185,0.411181 0.5433669,0.489026 0.1690157,0.08318 0.681008,0.09008 7.0579155,0.09518 l 5.868725,0.0047 z"
     id="path17" />
  <path
     style="opacity:0.15;fill:#000080;stroke:#1a1a1a;stroke-width:0.0617761"
     d="M 16.509653,22.728181 C 13.284307,22.712374 6.8666715,22.649035 6.1467181,22.625904 5.272474,22.597815 5.1745931,22.580909 4.8031253,22.393841 4.242534,22.111531 3.8576218,21.691083 3.492228,20.961917 L 3.3473823,20.672868 3.317056,13.78045 C 3.3003765,9.9896192 3.2908448,6.1305019 3.2958745,5.2046332 L 3.3050193,3.5212355 3.4357546,3.1969112 C 3.783892,2.333262 4.2195458,1.87801 5.091448,1.4667352 l 0.3264669,-0.1539939 2.8200002,8.156e-4 c 3.7908559,0.0011 9.7421589,0.053116 10.2075999,0.089224 0.301672,0.023403 0.41814,0.046869 0.589063,0.1186828 0.318334,0.1337496 0.548494,0.2969498 0.857314,0.6078962 0.305368,0.3074708 0.468475,0.5644149 0.675752,1.0645156 l 0.122879,0.2964722 0.02425,8.4108863 0.02425,8.410886 -0.107158,0.296031 c -0.271288,0.749443 -0.619276,1.249761 -1.095192,1.574602 -0.200348,0.136749 -0.587353,0.325187 -0.933015,0.454298 -0.271812,0.101526 -0.325174,0.111296 -0.571428,0.104622 -0.149391,-0.004 -0.834554,-0.01012 -1.522584,-0.01349 z m 2.152082,-1.682372 c 0.127693,-0.104341 0.307295,-0.280791 0.399117,-0.39211 l 0.166947,-0.202398 V 11.981675 3.5120498 L 19.006731,3.2753325 C 18.885144,3.145138 18.705505,2.9769345 18.607533,2.901547 L 18.429403,2.7644788 H 12.000702 5.5720015 L 5.3467745,2.9310419 C 5.1034752,3.1109703 4.9412314,3.2912923 4.8377013,3.496839 l -0.0655,0.1300436 v 8.4154454 8.415445 l 0.1190166,0.149492 c 0.1598695,0.200805 0.4318182,0.453343 0.5623119,0.522176 0.1637765,0.08639 0.7620173,0.09479 7.1743822,0.100716 l 5.801655,0.0054 z"
     id="path18" />
  <path
     style="opacity:0.15;fill:#000080;stroke:#1a1a1a;stroke-width:0.0617761"
     d="M 17.359073,22.696884 C 6.8537764,22.612525 5.6098425,22.594317 5.262641,22.519814 5.1501437,22.495674 4.9694487,22.431488 4.8610966,22.377177 4.2846416,22.088234 3.890048,21.662748 3.5287612,20.940535 L 3.3904709,20.664093 3.3701046,16.617761 C 3.3589031,14.392278 3.3477391,10.535135 3.3452955,8.046332 L 3.3408528,3.5212355 3.486785,3.1766095 C 3.8371587,2.3491849 4.267663,1.9065196 5.121158,1.4960681 L 5.4362934,1.3445174 7.0733591,1.3442103 c 2.7757161,-5.206e-4 10.1833209,0.060848 10.9498069,0.090714 0.788475,0.030723 0.914447,0.055585 1.245888,0.2458941 0.379877,0.2181203 0.80883,0.6531632 1.027685,1.0422758 0.05886,0.1046519 0.162003,0.3170467 0.229205,0.4719886 l 0.122185,0.2817124 0.02738,8.4083208 0.02738,8.40832 -0.108197,0.293437 c -0.227839,0.617911 -0.479494,1.029175 -0.830131,1.356631 -0.1916,0.178933 -0.306738,0.253825 -0.64002,0.416301 -0.440411,0.214702 -0.707033,0.312766 -0.9006,0.33124 -0.06795,0.0065 -0.457143,0.0091 -0.864865,0.0058 z m 1.272528,-1.579746 c 0.09857,-0.0821 0.279982,-0.257253 0.403148,-0.38923 L 19.258687,20.48795 V 11.994802 3.5016536 L 19.096525,3.3170141 C 19.007336,3.2154623 18.828202,3.0426481 18.698451,2.9329826 L 18.462538,2.7335907 H 12.001124 5.5397093 L 5.3644492,2.8687546 C 5.1305064,3.0491758 4.8865756,3.3112558 4.8064998,3.4682173 l -0.065187,0.1277773 v 8.4415154 8.441515 l 0.1558386,0.190288 c 0.1673415,0.204334 0.4598297,0.460562 0.5854742,0.512892 0.1426333,0.05941 1.4071947,0.07323 7.2030294,0.07873 l 5.766736,0.0055 z"
     id="path19" />
  <path
     style="opacity:0.15;fill:#000080;stroke:#1a1a1a;stroke-width:0.0617761"
     d="M 12.725869,22.62235 C 9.0364195,22.589122 5.7620821,22.535312 5.4623169,22.502982 5.0116675,22.454378 4.6188399,22.252053 4.2308689,21.868726 3.9637864,21.60484 3.7800807,21.345164 3.5634782,20.925336 L 3.4286942,20.664093 3.4092449,16.602317 C 3.3985478,14.36834 3.3880955,10.509195 3.3860175,8.0264392 L 3.3822394,3.5123378 3.531077,3.1756436 C 3.8869857,2.3705219 4.2652964,1.9770179 5.0853879,1.5589102 l 0.379012,-0.1932319 5.4222401,0.03716 c 5.624861,0.038548 7.587986,0.069615 7.877839,0.1246667 0.382406,0.072631 0.87083,0.4059967 1.23591,0.8435503 0.121893,0.1460895 0.258479,0.3680145 0.394221,0.6405282 l 0.207707,0.4169884 0.01883,4.2471043 c 0.01036,2.3359078 0.02078,6.1411398 0.02317,8.4560688 l 0.0043,4.208966 -0.125182,0.316131 c -0.353306,0.892238 -0.721103,1.326168 -1.40719,1.660214 -0.206789,0.100683 -0.480711,0.218217 -0.608717,0.261187 l -0.232738,0.07813 -1.446291,-0.005 c -0.79546,-0.0028 -2.641658,-0.01581 -4.102662,-0.02897 z m 5.994977,-1.538793 c 0.134423,-0.117557 0.317378,-0.297321 0.406567,-0.399475 l 0.162162,-0.185736 5.91e-4,-8.519443 5.92e-4,-8.5194435 -0.389711,-0.3783784 -0.38971,-0.3783784 H 12.009839 5.5083406 L 5.2869888,2.8861339 C 5.0585514,3.0754368 4.8862571,3.2640826 4.7747548,3.446981 L 4.7106556,3.5521236 4.7105402,12.0386 4.7104247,20.525077 5.011583,20.830334 c 0.1656371,0.16789 0.349807,0.330547 0.4092664,0.361459 0.1607054,0.08355 0.9013914,0.09357 7.3849386,0.09994 l 5.670653,0.0056 z"
     id="path20" />
  <path
     style="opacity:0.15;fill:#000080;stroke:#1a1a1a;stroke-width:0.0617761"
     d="M 13.72973,22.592434 C 10.197387,22.563787 6.3833396,22.505982 5.7606178,22.471655 5.374751,22.450385 5.2414485,22.430547 5.07362,22.369417 4.7758541,22.26096 4.5510412,22.116328 4.2953527,21.868726 4.016544,21.598734 3.8693533,21.400407 3.6434817,20.990383 L 3.4659028,20.668025 3.4359119,12.109986 3.4059209,3.5519473 3.5591309,3.2097034 C 3.9249707,2.3924822 4.265941,2.035492 5.0929422,1.6038289 L 5.4863373,1.3984916 7.90147,1.4183473 c 10.274959,0.084474 10.725339,0.092569 11.025749,0.1981543 0.36059,0.1267372 0.860689,0.5216679 1.119035,0.883707 0.07377,0.1033766 0.220388,0.352198 0.325823,0.5529365 l 0.191699,0.3649792 0.02957,8.4410657 0.02957,8.441065 -0.151225,0.370935 c -0.423825,1.039581 -0.823567,1.422821 -1.929988,1.850316 l -0.269106,0.103977 -0.873751,-0.0052 c -0.480564,-0.0029 -2.131667,-0.01539 -3.669118,-0.02786 z m 5.190086,-1.658071 0.401277,-0.393822 -3.15e-4,-8.557815 -3.15e-4,-8.5578133 -0.399042,-0.376549 -0.399042,-0.376549 H 12.004106 5.4858326 L 5.3066229,2.8228281 C 5.0784636,3.0150895 4.8647507,3.2399757 4.7608534,3.3971316 l -0.081317,0.1230003 v 8.5119841 8.511983 l 0.3335157,0.328655 c 0.1834337,0.18076 0.3745534,0.345238 0.4247105,0.365508 0.1588572,0.0642 1.4485478,0.07902 7.3581864,0.08456 l 5.72259,0.0054 z"
     id="path21" />
  <path
     style="opacity:0.15;fill:#000080;stroke:#1a1a1a;stroke-width:0.0617761"
     d="M 14.486486,22.561473 C 8.6345093,22.511147 5.5460859,22.449429 5.2355212,22.376607 4.666013,22.243067 4.1028427,21.735031 3.6795566,20.972973 L 3.5079887,20.664093 3.4745682,12.114161 3.4411477,3.5642297 3.597201,3.2215804 C 3.9650601,2.4138646 4.2813517,2.0870193 5.1428893,1.6243173 l 0.3550405,-0.1906799 3.7220776,0.032406 c 5.4259486,0.047241 8.6977806,0.091524 9.1851526,0.1243179 0.4632,0.031167 0.639942,0.087921 0.960389,0.308395 0.393681,0.2708591 0.654456,0.585528 0.967649,1.1676287 l 0.187367,0.3482387 0.0334,8.4333913 0.0334,8.433391 -0.156215,0.379936 c -0.416638,1.013319 -0.831114,1.40867 -1.916104,1.827693 l -0.273327,0.10556 -0.549427,-0.0051 c -0.302185,-0.0028 -1.744794,-0.01542 -3.205798,-0.02798 z M 18.938417,20.969717 19.351351,20.58036 19.350916,11.989022 19.35048,3.3976834 18.947695,3.019305 18.54491,2.6409266 H 12.004339 5.4637682 L 5.238275,2.8339768 C 5.1142537,2.9401544 4.9308518,3.1286238 4.8307152,3.2527977 L 4.6486486,3.4785684 v 8.5515816 8.551582 l 0.3320464,0.313877 c 0.1826255,0.172632 0.3737452,0.336226 0.4247104,0.363541 0.1409064,0.07552 1.1557717,0.0883 7.5021236,0.09446 l 5.617953,0.0055 z"
     id="path22" />
  <path
     style="opacity:0.15;fill:#000080;stroke:#1a1a1a;stroke-width:0.0617761"
     d="M 16.725869,22.542701 C 7.3444571,22.455366 5.4637576,22.414856 5.1007102,22.292292 4.5825992,22.117379 3.9842616,21.511842 3.6313649,20.805269 L 3.5454276,20.633205 3.5123464,12.098923 3.4792652,3.5646411 3.6332053,3.2349733 C 4.0041646,2.4405522 4.3062177,2.1295906 5.1677434,1.6551772 L 5.5169539,1.4628786 6.835697,1.4811948 c 0.7253087,0.010074 2.8685501,0.03221 4.762759,0.04919 4.222048,0.037849 6.723209,0.082119 7.037059,0.1245568 0.393995,0.053274 0.771383,0.2648973 1.10363,0.6188699 0.193607,0.2062664 0.357336,0.4463794 0.576813,0.8459094 l 0.169664,0.3088503 0.03087,8.4309218 0.03087,8.430922 -0.175794,0.405016 c -0.277953,0.640385 -0.537169,1.000351 -0.911678,1.266022 -0.223488,0.158539 -0.612778,0.356519 -0.97955,0.498166 -0.25941,0.100184 -0.28375,0.10382 -0.64906,0.09696 -0.208748,-0.0039 -0.706183,-0.01016 -1.105411,-0.01388 z m 2.241761,-1.546209 0.414609,-0.39347 -7.84e-4,-8.618113 L 19.380671,3.3667954 18.972189,2.9885316 18.563707,2.6102678 11.996273,2.6101532 5.4288387,2.6100386 5.1523938,2.8702722 C 5.0003491,3.0134007 4.8178318,3.2058363 4.7467998,3.297907 l -0.1291491,0.1674013 0.00778,8.5822877 0.00778,8.582288 0.3552124,0.321809 c 0.1953668,0.176995 0.3899614,0.336232 0.4324324,0.353861 0.1374703,0.05706 1.6706638,0.07329 7.4541165,0.0789 l 5.678055,0.0055 z"
     id="path23" />
  <path
     style="opacity:0.15;fill:#000080;stroke:#1a1a1a;stroke-width:0.0617761"
     d="m 15.861004,22.501035 c -1.095753,-0.0137 -3.284942,-0.0404 -4.864865,-0.05934 C 6.6356729,22.389437 5.4119839,22.3474 5.0799947,22.23846 4.6465163,22.096218 4.0391374,21.488638 3.7067486,20.864759 L 3.5833814,20.633205 3.5509402,12.108108 3.5184991,3.5830116 3.6665495,3.2621828 C 4.0234735,2.4887199 4.3441362,2.1573487 5.1891892,1.6886944 L 5.5289575,1.5002638 7.984556,1.5290799 c 1.3505791,0.015849 3.796911,0.043572 5.436293,0.061607 3.438455,0.037827 5.131444,0.078149 5.337585,0.1271264 0.268494,0.063792 0.585238,0.2422493 0.821367,0.4627682 0.245197,0.2289869 0.444524,0.5002101 0.701519,0.9545535 l 0.165979,0.2934363 0.0235,6.2084942 c 0.01292,3.4146715 0.02,7.2301155 0.01573,8.4787645 l -0.0078,2.27027 -0.236566,0.478765 c -0.348019,0.704321 -0.596069,0.976738 -1.159368,1.273256 -0.442497,0.232929 -0.784037,0.358102 -1.020051,0.373847 -0.115224,0.0077 -1.106022,0.0028 -2.201775,-0.01093 z m 3.133067,-1.474008 0.416812,-0.393822 -2.21e-4,-8.648649 L 19.41044,3.3359073 18.997526,2.957529 18.584613,2.5791506 H 11.999745 5.4148768 L 5.2093689,2.7656266 C 5.0963396,2.8681884 4.9100604,3.0593081 4.7954152,3.1903371 l -0.2084458,0.2382343 -4.84e-5,8.6068956 -4.84e-5,8.606895 0.3474903,0.307169 c 0.5273884,0.466192 0.3728782,0.420776 1.5034351,0.441916 0.5364312,0.01003 3.487259,0.02075 6.557395,0.02382 l 5.582065,0.0056 z"
     id="path24" />
  <path
     style="opacity:0.15;fill:#000080;stroke:#1a1a1a;stroke-width:0.0617761"
     d="M 13.559846,22.43807 C 7.3969739,22.355307 5.987652,22.32344 5.3899614,22.253337 5.0404326,22.21234 4.8033966,22.092192 4.4895285,21.796927 4.1849332,21.510386 3.9760935,21.248421 3.7784816,20.905003 L 3.6232703,20.63527 3.5910067,12.109141 3.5587432,3.5830116 3.6984508,3.2852606 C 4.0559737,2.5232926 4.3418614,2.2233492 5.1598204,1.752043 L 5.5289575,1.539347 10.332046,1.593702 c 5.132718,0.058085 7.905941,0.1084284 8.274089,0.1502013 0.624325,0.070841 1.173079,0.5572897 1.691379,1.4993398 l 0.118958,0.2162163 0.01137,8.4677566 0.01137,8.467756 -0.219566,0.427997 c -0.390864,0.761901 -0.640536,1.022009 -1.285281,1.339 -0.642277,0.315777 -0.480066,0.293181 -2.131274,0.296894 -0.798456,0.0018 -2.257915,-0.0076 -3.243243,-0.02079 z m 5.458814,-1.380155 0.422293,-0.393822 -4.11e-4,-8.679537 -4.1e-4,-8.6795367 L 19.024779,2.9266409 18.609425,2.5482625 11.991972,2.5477785 5.3745174,2.5472945 4.965251,2.9656274 4.5559846,3.3839603 v 8.6434517 8.643452 l 0.3629343,0.317371 c 0.1996139,0.174555 0.411583,0.33955 0.4710425,0.366657 0.1622476,0.07397 0.9791952,0.08391 7.4603456,0.09076 l 5.746061,0.0061 z"
     id="path25" />
  <path
     style="opacity:0.15;fill:#000080;stroke:#1a1a1a;stroke-width:0.0617761"
     d="m 12.849421,22.388687 c -0.203861,-0.004 -1.413128,-0.02222 -2.687259,-0.04045 -3.758788,-0.0538 -4.7412422,-0.09353 -5.0730724,-0.20519 C 4.6969637,22.011105 4.1410309,21.45693 3.79068,20.848745 L 3.6657373,20.631853 3.6301323,12.10928 3.5945274,3.5867058 3.7969459,3.1833143 C 4.1271565,2.525251 4.3876883,2.2576112 5.1260115,1.8179886 L 5.5261542,1.57973 8.9406832,1.617053 c 6.9529998,0.076 9.5729368,0.1297285 9.8433048,0.2018631 0.514115,0.1371663 0.987384,0.5864622 1.432415,1.3598556 l 0.150865,0.2621803 0.02174,8.45713 0.02174,8.45713 -0.147024,0.293437 c -0.242092,0.483176 -0.450445,0.805632 -0.648215,1.003204 -0.29085,0.290559 -0.963406,0.65618 -1.332571,0.724424 -0.156563,0.02894 -4.132274,0.03802 -5.433521,0.01241 z m 6.198675,-1.300976 0.422613,-0.39273 5.34e-4,-8.710425 5.33e-4,-8.7104247 L 19.05116,2.8957529 18.630544,2.5173745 H 11.98423 5.3379155 L 4.931506,2.9469747 4.5250965,3.3765749 v 8.6625041 8.662503 l 0.3413726,0.290136 c 0.5559419,0.4725 0.4594168,0.441076 1.4189122,0.461923 0.4503762,0.0098 3.4111438,0.01982 6.5794837,0.0223 l 5.760618,0.0045 z"
     id="path26" />
  <path
     style="opacity:0.15;fill:#000080;stroke:#1a1a1a;stroke-width:0.0617761"
     d="M 12.803089,22.345585 C 8.5014965,22.29836 5.9064887,22.233661 5.3745174,22.160376 5.0683135,22.118193 4.8207603,21.986805 4.5272544,21.710696 4.2554704,21.455021 4.0151957,21.150401 3.8235447,20.818533 L 3.6986815,20.602317 3.6657857,12.092664 3.6328898,3.5830116 3.8189202,3.2282529 C 4.1989285,2.5035798 4.423158,2.2774152 5.2418813,1.7930123 l 0.2997963,-0.1773764 2.943447,0.034257 c 6.6316154,0.077181 9.4520174,0.1291084 10.0673634,0.1853539 0.60109,0.054942 1.083584,0.4505078 1.591201,1.3045216 l 0.190022,0.3196913 0.01963,8.4413663 0.01963,8.441367 -0.202683,0.39261 c -0.383863,0.743565 -0.649324,1.02996 -1.244492,1.342631 -0.518359,0.272319 -0.420529,0.260657 -2.323477,0.276959 -0.925869,0.0079 -2.635522,0.004 -3.799228,-0.0088 z m 6.2713,-1.225894 0.427123,-0.393822 7.26e-4,-8.741313 7.27e-4,-8.7413128 L 19.079668,2.8654079 18.656371,2.4875726 11.984556,2.487256 5.3127413,2.4869394 4.9034749,2.9206691 4.4942085,3.3543988 v 8.6863862 8.686386 l 0.3246554,0.277341 c 0.1785604,0.152538 0.4033985,0.31904 0.49964,0.370005 l 0.1749847,0.09266 0.6818271,0.01731 c 0.3750049,0.0095 3.3346052,0.01994 6.5768893,0.02317 l 5.895062,0.0059 z"
     id="path27" />
  <path
     style="opacity:0.15;fill:#000080;stroke:#1a1a1a;stroke-width:0.0617761"
     d="M 11.814672,22.296831 C 10.072137,22.273206 7.4035818,22.218862 6.6563707,22.191784 5.6748674,22.156215 5.2892859,22.120761 5.1046433,22.049103 4.711686,21.8966 4.2299743,21.414676 3.8591772,20.803089 L 3.7374517,20.602317 3.7040003,12.108108 3.6705488,3.6138996 3.8311467,3.2999382 C 4.2147796,2.5499535 4.4265968,2.3316337 5.2622155,1.8249368 L 5.5495572,1.6507005 8.072076,1.6815158 c 1.3873853,0.016949 3.043754,0.038536 3.68082,0.047973 5.77617,0.085558 6.736419,0.1111738 7.029525,0.1875181 0.482775,0.125747 0.904321,0.5272036 1.352148,1.2877117 l 0.168193,0.2856294 0.01543,8.416989 0.01543,8.416987 -0.169655,0.332438 c -0.403606,0.790867 -0.702198,1.10604 -1.368602,1.444609 -0.39724,0.201819 -0.249153,0.193313 -3.45946,0.198715 -1.605405,0.0027 -3.189961,0.0012 -3.521235,-0.0033 z m 7.287015,-1.146252 0.430786,-0.393822 6.44e-4,-8.772201 6.43e-4,-8.7722008 -0.428669,-0.3783784 -0.42867,-0.3783783 -6.697284,0.00102 -6.6972837,0.00102 -0.4092664,0.4385644 -0.4092664,0.4385643 5.829e-4,8.7109998 5.828e-4,8.710999 0.2209616,0.185328 c 0.6714246,0.563147 0.6447485,0.552468 1.4303823,0.572636 0.3567568,0.0092 3.3275935,0.01958 6.6018599,0.02317 l 5.953211,0.0065 z"
     id="path28" />
  <path
     style="opacity:0.15;fill:#000080;stroke:#1a1a1a;stroke-width:0.0617761"
     d="M 10.301158,22.233993 C 6.9378116,22.168865 5.7587961,22.128915 5.3603544,22.066577 5.0700811,22.021164 4.8304837,21.88077 4.5223428,21.575538 4.248778,21.304556 4.097256,21.112988 3.8939763,20.781099 L 3.7764548,20.589224 3.7439473,12.098577 3.7114398,3.6079288 3.874432,3.3020339 C 4.2475225,2.6018377 4.4385007,2.3974188 5.1350327,1.9527141 l 0.4248129,-0.2712242 0.9266409,0.017328 c 0.5096525,0.00953 2.0247104,0.030889 3.3667954,0.047464 5.5761141,0.068865 8.2813381,0.1259006 8.7420411,0.184312 0.563302,0.07142 0.999288,0.4480734 1.510587,1.3050118 l 0.170423,0.2856294 0.0026,8.4065809 0.0026,8.40658 -0.11332,0.226624 c -0.411081,0.822113 -0.763433,1.199131 -1.411131,1.509919 -0.228408,0.109598 -0.308077,0.13123 -0.569216,0.154558 -0.259689,0.0232 -6.765424,0.03021 -7.88665,0.0085 z m 8.827436,-1.052526 0.434066,-0.393822 10e-4,-8.803089 0.001,-8.8030888 -0.4325,-0.3783784 -0.4325,-0.3783784 -6.724378,0.00147 -6.7243787,0.00147 -0.408033,0.4386809 -0.4080329,0.4386809 -2.289e-4,8.7413128 -2.288e-4,8.741313 0.33677,0.277992 c 0.1852235,0.152896 0.4165994,0.319691 0.5141687,0.370656 0.1765874,0.09224 0.1803752,0.09275 0.8282485,0.110245 0.3579674,0.0097 3.3351109,0.02009 6.6158741,0.02317 l 5.965025,0.0056 z"
     id="path29" />
</svg>
