<?xml version="1.0" encoding="UTF-8" standalone="no"?>
<svg
   width="24"
   height="24"
   viewBox="0 0 24 24"
   fill="none"
   stroke="currentColor"
   stroke-width="2"
   stroke-linecap="round"
   stroke-linejoin="round"
   class="lucide lucide-calculator"
   version="1.1"
   id="svg8"
   sodipodi:docname="calculator.svg"
   inkscape:version="1.3.2 (091e20e, 2023-11-25, custom)"
   xmlns:inkscape="http://www.inkscape.org/namespaces/inkscape"
   xmlns:sodipodi="http://sodipodi.sourceforge.net/DTD/sodipodi-0.dtd"
   xmlns="http://www.w3.org/2000/svg"
   xmlns:svg="http://www.w3.org/2000/svg">
  <defs
     id="defs8" />
  <sodipodi:namedview
     id="namedview8"
     pagecolor="#ffffff"
     bordercolor="#000000"
     borderopacity="0.25"
     inkscape:showpageshadow="2"
     inkscape:pageopacity="0.0"
     inkscape:pagecheckerboard="0"
     inkscape:deskcolor="#d1d1d1"
     inkscape:zoom="32.375"
     inkscape:cx="11.984556"
     inkscape:cy="12"
     inkscape:window-width="1920"
     inkscape:window-height="991"
     inkscape:window-x="-9"
     inkscape:window-y="-9"
     inkscape:window-maximized="1"
     inkscape:current-layer="svg8" />
  <rect
     width="16"
     height="20"
     x="4"
     y="2"
     rx="2"
     id="rect1"
     style="fill:#0000ff;fill-opacity:1;stroke:#000080;stroke-opacity:1" />
  <line
     x1="8"
     x2="16"
     y1="6"
     y2="6"
     id="line1"
     style="fill:#ffffff;stroke:#ffffff" />
  <line
     x1="16"
     x2="16"
     y1="14"
     y2="18"
     id="line2"
     style="fill:#ffffff;stroke:#ffffff" />
  <path
     d="M16 10h.01"
     id="path2"
     style="fill:#ffffff;stroke:#ffffff" />
  <path
     d="M12 10h.01"
     id="path3"
     style="fill:#ffffff;stroke:#ffffff" />
  <path
     d="M8 10h.01"
     id="path4"
     style="fill:#ffffff;stroke:#ffffff" />
  <path
     d="M12 14h.01"
     id="path5"
     style="fill:#ffffff;stroke:#ffffff" />
  <path
     d="M8 14h.01"
     id="path6"
     style="fill:#ffffff;stroke:#ffffff" />
  <path
     d="M12 18h.01"
     id="path7"
     style="fill:#ffffff;stroke:#ffffff" />
  <path
     d="M8 18h.01"
     id="path8"
     style="fill:#ffffff;stroke:#ffffff" />
  <path
     style="opacity:0.15;fill:#ffffff;stroke:#ffffff;stroke-width:0.0617761;stroke-opacity:1"
     d="M 5.7085494,20.931208 C 5.4810709,20.85238 5.3169993,20.734747 5.2025843,20.568451 5.0059491,20.282651 5.019305,20.907001 5.019305,12.000697 5.019305,2.9642239 5.0015112,3.6960633 5.2284777,3.3976834 5.3136263,3.2857433 5.4042778,3.2134932 5.557894,3.1351351 L 5.7698333,3.027027 H 12 18.230167 l 0.211939,0.1081081 c 0.153616,0.078358 0.244268,0.1506082 0.329416,0.2625483 C 18.998488,3.6960627 18.980695,2.9642998 18.980695,12 c 0,9.0357 0.01779,8.303937 -0.209173,8.602317 -0.08515,0.111937 -0.175802,0.184192 -0.329411,0.262548 l -0.211934,0.108108 -6.180726,0.0069 c -5.8781044,0.0065 -6.1885677,0.0042 -6.3409016,-0.04863 z m 2.7498688,-2.023982 c 0.217247,-0.106289 0.4307837,-0.340541 0.5040362,-0.552933 0.082523,-0.23927 0.071078,-0.5542 -0.028004,-0.770624 -0.2893581,-0.632042 -1.105511,-0.798103 -1.6148858,-0.328577 -0.2060731,0.189951 -0.2994358,0.39016 -0.3167863,0.679321 -0.029251,0.487501 0.2358859,0.888104 0.6851387,1.035193 0.2052222,0.06719 0.5652436,0.03804 0.7705012,-0.06238 z m 3.9894578,0.0095 c 0.195296,-0.09297 0.383747,-0.280257 0.478089,-0.475141 0.107096,-0.221232 0.12118,-0.561402 0.03293,-0.795269 -0.251455,-0.666342 -1.105764,-0.872419 -1.646925,-0.397273 -0.06258,0.05495 -0.159245,0.192288 -0.214806,0.3052 -0.08932,0.181523 -0.100846,0.233971 -0.09951,0.452955 0.0018,0.297016 0.06788,0.466975 0.264401,0.68017 0.220099,0.238779 0.450558,0.329071 0.799721,0.313325 0.16344,-0.0074 0.27714,-0.0321 0.3861,-0.08397 z m 3.976358,0.0094 c 0.211295,-0.09401 0.433278,-0.328777 0.513426,-0.542989 0.06541,-0.174816 0.0662,-0.20341 0.0662,-2.383116 0,-2.179706 -7.94e-4,-2.2083 -0.0662,-2.383116 -0.07961,-0.212778 -0.300173,-0.447041 -0.513426,-0.545317 -0.218645,-0.10076 -0.64323,-0.0967 -0.856666,0.0082 -0.223264,0.109722 -0.425931,0.325184 -0.505228,0.537124 -0.06541,0.174819 -0.0662,0.203392 -0.0662,2.383943 0,2.104102 0.0028,2.214306 0.0595,2.363601 0.108322,0.285081 0.344216,0.510865 0.632276,0.605178 0.181356,0.05938 0.554662,0.03732 0.736317,-0.0435 z M 8.2069739,14.992333 C 8.5416732,14.921392 8.7950851,14.720745 8.93445,14.416331 9.0335324,14.199907 9.044977,13.884977 8.9624544,13.645707 8.8886561,13.431733 8.6758462,13.199234 8.4541347,13.090359 8.3008287,13.015075 8.2419512,13.003861 8,13.003861 c -0.2327421,0 -0.3031313,0.01235 -0.4324324,0.0759 -0.2257359,0.110937 -0.4257063,0.324862 -0.5082215,0.543687 -0.094877,0.251608 -0.079164,0.606832 0.036864,0.833392 0.1417732,0.27683 0.4084535,0.477462 0.7155803,0.538353 0.1814257,0.03597 0.2130763,0.03574 0.3951836,-0.0029 z m 4.2347401,-0.08085 c 0.224126,-0.0996 0.426741,-0.318111 0.517177,-0.557762 0.136001,-0.360394 0.04124,-0.799322 -0.231404,-1.071796 -0.207553,-0.207427 -0.385926,-0.276811 -0.712043,-0.276969 -0.346885,-1.68e-4 -0.53505,0.07503 -0.742378,0.296679 -0.205912,0.220136 -0.273568,0.389796 -0.275412,0.690646 -0.0017,0.278045 0.07826,0.497539 0.254308,0.698046 0.278394,0.317074 0.768774,0.408228 1.189752,0.221156 z M 8.4584182,10.907226 C 8.6756652,10.800937 8.8892019,10.566685 8.9624544,10.354293 9.044977,10.115023 9.0335324,9.8000927 8.93445,9.5836686 8.6450919,8.9516272 7.828939,8.7855663 7.3195642,9.2550919 7.1134911,9.4450434 7.0201284,9.6452519 7.0027779,9.9344133 c -0.029251,0.4875007 0.2358859,0.8881037 0.6851387,1.0351927 0.2052222,0.06719 0.5652436,0.03804 0.7705016,-0.06238 z m 3.9894578,0.0095 c 0.195296,-0.09297 0.383747,-0.280257 0.478089,-0.475141 0.107096,-0.221232 0.12118,-0.5614015 0.03293,-0.7952693 C 12.70744,8.9799744 11.853131,8.7738975 11.31197,9.2490431 c -0.06258,0.054948 -0.159245,0.1922879 -0.214806,0.3051997 -0.08932,0.1815228 -0.100846,0.2339713 -0.09951,0.4529552 0.0018,0.297016 0.06788,0.466975 0.264401,0.68017 0.220099,0.238779 0.450558,0.329071 0.799721,0.313325 0.16344,-0.0074 0.27714,-0.0321 0.3861,-0.08397 z m 4.010542,-0.0095 c 0.217247,-0.106289 0.430784,-0.340541 0.504036,-0.552933 0.08252,-0.23927 0.07108,-0.5542003 -0.028,-0.7706244 -0.289358,-0.6320414 -1.105511,-0.7981023 -1.614886,-0.3285767 -0.206073,0.1899515 -0.299436,0.39016 -0.316786,0.6793214 -0.02925,0.4875007 0.235886,0.8881037 0.685139,1.0351927 0.205222,0.06719 0.565243,0.03804 0.770501,-0.06238 z m -0.09566,-3.9525397 c 0.19357,-0.075157 0.439153,-0.2998026 0.541971,-0.4957643 0.07287,-0.1388812 0.08283,-0.1931259 0.08323,-0.4532133 4.14e-4,-0.2679245 -0.0082,-0.3123608 -0.09229,-0.4769715 C 16.780057,5.3024609 16.543811,5.1017163 16.314772,5.0351328 16.170281,4.9931281 15.656864,4.9885045 11.936547,4.9957045 L 7.7220077,5.003861 7.5675676,5.0797601 C 7.3418317,5.1906973 7.1418613,5.4046225 7.0593461,5.6234474 6.9644692,5.8750548 6.980182,6.2302789 7.09621,6.4568386 7.2378757,6.7334592 7.5038255,6.9336633 7.8117903,6.99552 c 0.069539,0.013967 1.9889819,0.023295 4.2654297,0.020729 3.940778,-0.00444 4.146014,-0.00739 4.285535,-0.061563 z"
     id="path9" />
</svg>
